<svg width="32" height="32" viewBox="0 0 32 32" fill="none" xmlns="http://www.w3.org/2000/svg">
<path d="M27.9294 11.0733C27.916 10.0635 27.7269 9.0637 27.3708 8.11867C27.0619 7.32154 26.5901 6.5976 25.9857 5.99311C25.3812 5.38862 24.6572 4.91687 23.8601 4.608C22.9272 4.25781 21.9417 4.06846 20.9454 4.048C19.6628 3.99067 19.2561 3.97467 16.0001 3.97467C12.7441 3.97467 12.3268 3.97467 11.0534 4.048C10.0576 4.06861 9.07256 4.25796 8.14009 4.608C7.34284 4.91666 6.61879 5.38833 6.01427 5.99285C5.40975 6.59737 4.93808 7.32141 4.62943 8.11867C4.27854 9.05085 4.08959 10.0362 4.07076 11.032C4.01343 12.316 3.99609 12.7227 3.99609 15.9787C3.99609 19.2347 3.99609 19.6507 4.07076 20.9253C4.09076 21.9227 4.27876 22.9067 4.62943 23.8413C4.9386 24.6384 5.41062 25.3621 6.01534 25.9664C6.62006 26.5706 7.34418 27.0421 8.14143 27.3507C9.07134 27.7149 10.0566 27.9178 11.0548 27.9507C12.3388 28.008 12.7454 28.0253 16.0014 28.0253C19.2574 28.0253 19.6748 28.0253 20.9481 27.9507C21.9443 27.9311 22.9299 27.7421 23.8628 27.392C24.6597 27.0828 25.3834 26.6109 25.9879 26.0065C26.5923 25.402 27.0642 24.6783 27.3734 23.8813C27.7241 22.948 27.9121 21.964 27.9321 20.9653C27.9894 19.6827 28.0068 19.276 28.0068 16.0187C28.0041 12.7627 28.0041 12.3493 27.9294 11.0733V11.0733ZM15.9921 22.136C12.5868 22.136 9.82809 19.3773 9.82809 15.972C9.82809 12.5667 12.5868 9.808 15.9921 9.808C17.6269 9.808 19.1947 10.4574 20.3507 11.6134C21.5067 12.7694 22.1561 14.3372 22.1561 15.972C22.1561 17.6068 21.5067 19.1746 20.3507 20.3306C19.1947 21.4866 17.6269 22.136 15.9921 22.136V22.136ZM22.4014 11.0173C22.2126 11.0175 22.0256 10.9805 21.8512 10.9083C21.6767 10.8361 21.5182 10.7302 21.3847 10.5967C21.2512 10.4632 21.1453 10.3047 21.0731 10.1303C21.001 9.95579 20.9639 9.76881 20.9641 9.58C20.9641 9.39134 21.0013 9.20452 21.0735 9.03022C21.1457 8.85591 21.2515 8.69753 21.3849 8.56413C21.5183 8.43072 21.6767 8.3249 21.851 8.2527C22.0253 8.1805 22.2121 8.14334 22.4008 8.14334C22.5894 8.14334 22.7762 8.1805 22.9505 8.2527C23.1249 8.3249 23.2832 8.43072 23.4166 8.56413C23.55 8.69753 23.6559 8.85591 23.7281 9.03022C23.8003 9.20452 23.8374 9.39134 23.8374 9.58C23.8374 10.3747 23.1948 11.0173 22.4014 11.0173Z" fill="white"/>
<path d="M15.992 19.976C18.2034 19.976 19.996 18.1833 19.996 15.972C19.996 13.7606 18.2034 11.968 15.992 11.968C13.7807 11.968 11.988 13.7606 11.988 15.972C11.988 18.1833 13.7807 19.976 15.992 19.976Z" fill="white"/>
</svg>
