<svg width="32" height="32" viewBox="0 0 32 32" fill="none" xmlns="http://www.w3.org/2000/svg">
<path d="M20.3299 21.48L22.5699 19.24C22.8716 18.942 23.2533 18.7381 23.6687 18.6529C24.0841 18.5676 24.5152 18.6049 24.9099 18.76L27.6399 19.85C28.0387 20.0119 28.3807 20.2882 28.6227 20.6441C28.8647 21 28.996 21.4196 28.9999 21.85V26.85C28.9976 27.1428 28.936 27.432 28.819 27.7004C28.7019 27.9688 28.5317 28.2107 28.3187 28.4115C28.1057 28.6124 27.8542 28.7681 27.5795 28.8692C27.3047 28.9704 27.0123 29.0148 26.7199 29C7.58989 27.81 3.72989 11.61 2.99989 5.40998C2.966 5.10552 2.99696 4.79733 3.09074 4.50569C3.18451 4.21405 3.33897 3.94557 3.54396 3.71792C3.74894 3.49026 3.99981 3.30858 4.28005 3.18484C4.56029 3.0611 4.86355 2.9981 5.16989 2.99998H9.99989C10.4309 3.00126 10.8517 3.13145 11.2081 3.37381C11.5645 3.61617 11.8403 3.95962 11.9999 4.35998L13.0899 7.08998C13.2501 7.48305 13.291 7.91462 13.2074 8.33079C13.1238 8.74696 12.9195 9.12928 12.6199 9.42998L10.3799 11.67C10.3799 11.67 11.6699 20.4 20.3299 21.48Z" fill="white"/>
</svg>
