<svg width="32" height="32" viewBox="0 0 32 32" fill="none" xmlns="http://www.w3.org/2000/svg">
<path d="M16.0001 28C14.316 26.5635 12.755 24.9887 11.3334 23.292C9.20008 20.744 6.66675 16.9493 6.66675 13.3333C6.66582 11.4866 7.21276 9.68111 8.23834 8.14535C9.26392 6.60959 10.722 5.41259 12.4282 4.70584C14.1343 3.9991 16.0117 3.81437 17.8229 4.17504C19.6341 4.5357 21.2975 5.42556 22.6027 6.73198C23.4718 7.59712 24.1605 8.62603 24.6293 9.75914C25.098 10.8923 25.3373 12.1071 25.3334 13.3333C25.3334 16.9493 22.8001 20.744 20.6667 23.292C19.2452 24.9887 17.6842 26.5635 16.0001 28ZM16.0001 9.33331C14.9392 9.33331 13.9218 9.75474 13.1717 10.5049C12.4215 11.255 12.0001 12.2724 12.0001 13.3333C12.0001 14.3942 12.4215 15.4116 13.1717 16.1617C13.9218 16.9119 14.9392 17.3333 16.0001 17.3333C17.0609 17.3333 18.0784 16.9119 18.8285 16.1617C19.5787 15.4116 20.0001 14.3942 20.0001 13.3333C20.0001 12.2724 19.5787 11.255 18.8285 10.5049C18.0784 9.75474 17.0609 9.33331 16.0001 9.33331Z" fill="white"/>
</svg>
